#!OML:ASF H:\GeneralSubjects\Female5\Project 1\Capture day 1\Session 1\Female5.ASF
:FULLY-SPECIFIED
:DEGREES
241
root 5.5348 15.5424 9.61026 197.459 -110.946 -185.158
lowerback 10.0059 2.25258 9.72172
upperback -9.72438 4.04896 -4.46648
thorax -15.7651 0.314688 -11.61
lowerneck -17.7884 -11.7241 -11.6158
upperneck 36.141 -20.3534 11.9919
head 19.7008 -8.61897 2.81345
rclavicle -4.54223e-014 -4.69132e-014
rhumerus -52.4871 4.23188 -84.1299
rradius 31.4346
rwrist -6.64642
rhand -18.1982 -23.8915
rfingers 7.12502
rthumb 8.07909 -53.717
lclavicle -4.54223e-014 -4.69132e-014
lhumerus -43.1841 -14.9625 81.1124
lradius 40.1714
lwrist -1.0608
lhand -23.3597 31.6824
lfingers 7.12502
lthumb 3.09569 61.6397
rfemur -24.1039 2.57728 33.3633
rtibia 12.6205
rfoot -22.8558 -19.2427
rtoes 3.0876
lfemur 1.18938 0.490591 -20.5895
ltibia 38.9499
lfoot 1.35207 14.4562
ltoes -63.8289
242
root 5.2737 15.5899 9.66008 198.659 -110.684 -186.712
lowerback 9.9397 2.28937 10.4387
upperback -9.73487 4.22328 -4.46557
thorax -15.6631 0.320836 -12.0576
lowerneck -17.6965 -11.8062 -11.5848
upperneck 36.6083 -20.4919 11.6281
head 19.913 -8.71578 2.61144
rclavicle 2.00276e-014 1.51076e-014
rhumerus -52.607 5.44231 -85.2854
rradius 32.2856
rwrist -6.4021
rhand -18.2938 -23.1609
rfingers 7.12502
rthumb 7.98673 -52.99
lclavicle 2.00276e-014 1.51076e-014
lhumerus -43.3019 -15.2015 80.9632
lradius 39.594
lwrist -1.41751
lhand -22.7941 31.1972
lfingers 7.12502
lthumb 3.64197 61.1458
rfemur -22.0893 2.56358 34.2052
rtibia 11.6021
rfoot -23.0813 -18.7432
rtoes 2.86857
lfemur -0.986613 2.02585 -19.1476
ltibia 42.7512
lfoot 3.52398 15.7754
ltoes -63.6539
243
root 5.02907 15.629 9.71076 200.122 -110.487 -188.44
lowerback 9.86672 2.32069 11.2033
upperback -9.77207 4.4034 -4.42045
thorax -15.5876 0.324385 -12.4823
lowerneck -17.5496 -11.8598 -11.6088
upperneck 37.0635 -20.5821 11.2991
head 20.1126 -8.80121 2.44929
rclavicle -3.29983e-014 -2.06736e-014
rhumerus -52.5835 6.33951 -86.0128
rradius 33.2728
rwrist -5.97639
rhand -17.6391 -22.6773
rfingers 7.12502
rthumb 8.61859 -52.4813
lclavicle -3.29983e-014 -2.06736e-014
lhumerus -43.4261 -15.1961 80.7046
lradius 39.112
lwrist -2.23633
lhand -22.3223 31.3698
lfingers 7.12502
lthumb 4.09751 61.3101
rfemur -20.4456 2.1519 35.1007
rtibia 10.8107
rfoot -23.1305 -18.0636
rtoes 1.05484
lfemur -3.47421 3.39937 -17.8599
ltibia 46.2388
lfoot 0.803228 17.4311
ltoes -64.9259
244
root 4.7964 15.6597 9.76036 201.429 -110.198 -189.945
lowerback 9.87415 2.37531 11.7674
upperback -9.84773 4.58573 -4.39926
thorax -15.6143 0.336926 -12.8301
lowerneck -17.2398 -11.8278 -11.6107
upperneck 37.416 -20.6416 11.1834
head 20.2428 -8.86241 2.40192
rclavicle 2.3556e-014 -3.97569e-015
rhumerus -52.4718 7.10417 -86.565
rradius 34.3043
rwrist -5.69812
rhand -17.3534 -22.1659
rfingers 7.12502
rthumb 8.89438 -51.9585
lclavicle 2.3556e-014 -3.97569e-015
lhumerus -43.6612 -15.0297 80.2631
lradius 38.7998
lwrist -3.347
lhand -22.1257 31.6954
lfingers 7.12502
lthumb 4.28742 61.632
rfemur -18.935 1.8788 35.8096
rtibia 9.99477
rfoot -23.1465 -17.579
rtoes -1.13758
lfemur -6.24408 4.64447 -16.9227
ltibia 49.409
lfoot -2.17437 19.0785
ltoes -64.4553
245
root 4.56747 15.683 9.81344 202.56 -109.736 -191.356
lowerback 10.0372 2.46215 12.1994
upperback -9.89108 4.80722 -4.39579
thorax -15.689 0.378007 -13.1431
lowerneck -17.0126 -11.8215 -11.5724
upperneck 37.6915 -20.7347 11.0888
head 20.3514 -8.92309 2.34219
rclavicle 3.91606e-014 -2.46493e-014
rhumerus -52.2781 7.94892 -87.1303
rradius 35.207
rwrist -5.36534
rhand -18.0528 -21.5836
rfingers 7.12502
rthumb 8.21934 -51.4037
lclavicle 3.91606e-014 -2.46493e-014
lhumerus -43.8594 -14.6872 79.7344
lradius 38.3689
lwrist -4.10514
lhand -22.9739 31.42
lfingers 7.12502
lthumb 3.46826 61.3716
rfemur -17.2626 2.27611 36.3283
rtibia 9.08131
rfoot -23.3421 -17.5024
rtoes -2.06053
lfemur -8.98893 5.60961 -16.3309
ltibia 52.0641
lfoot -5.39731 19.8723
ltoes -62.9855
246
root 4.34159 15.7014 9.86937 202.972 -109.125 -192.037
lowerback 10.2087 2.588 12.317
upperback -9.876 5.01824 -4.44648
thorax -15.7025 0.457448 -13.3304
lowerneck -16.9067 -11.9015 -11.5492
upperneck 37.9488 -20.8888 10.8932
head 20.473 -9.00946 2.21027
rclavicle -8.54774e-015 -1.59028e-015
rhumerus -51.8856 8.62324 -87.4708
rradius 35.8947
rwrist -4.93871
rhand -18.9069 -21.3531
rfingers 7.12502
rthumb 7.39498 -51.2039
lclavicle -8.54774e-015 -1.59028e-015
lhumerus -44.0219 -14.1385 79.2304
lradius 37.9856
lwrist -4.35906
lhand -24.233 31.2506
lfingers 7.12502
lthumb 2.25235 61.2185
rfemur -15.5971 2.73059 36.513
rtibia 8.24286
rfoot -23.5292 -17.4511
rtoes -2.76522
lfemur -11.6957 6.23267 -16.2721
ltibia 54.043
lfoot -7.7194 20.0038
ltoes -60.9147
247
root 4.11884 15.7176 9.92286 203.267 -108.455 -192.456
lowerback 10.2637 2.75104 12.2661
upperback -9.8483 5.22983 -4.51986
thorax -15.6273 0.566891 -13.4302
lowerneck -16.8945 -11.9497 -11.5913
upperneck 38.1096 -20.9979 10.8512
head 20.597 -9.06311 2.16769
rclavicle 3.24019e-014 -2.06736e-014
rhumerus -51.2198 9.018 -87.4994
rradius 36.4546
rwrist -4.9606
rhand -19.7099 -21.5653
rfingers 7.12502
rthumb 6.61987 -51.4418
lclavicle 3.24019e-014 -2.06736e-014
lhumerus -44.2592 -13.5595 78.6795
lradius 37.9384
lwrist -4.28598
lhand -24.6913 31.8725
lfingers 7.12502
lthumb 1.80976 61.8446
rfemur -14.1691 3.13384 36.587
rtibia 7.56707
rfoot -23.6897 -17.3345
rtoes -3.57601
lfemur -14.6258 6.64075 -16.4664
ltibia 55.4262
lfoot -11.3228 19.7497
ltoes -62.8866
248
root 3.89835 15.7306 9.97151 204.35 -107.812 -193.672
lowerback 10.3798 2.90302 12.374
upperback -9.85867 5.47315 -4.53658
thorax -15.6269 0.666183 -13.5713
lowerneck -16.8916 -11.946 -11.5955
upperneck 38.1902 -21.035 10.8679
head 20.6633 -9.07839 2.16638
rclavicle -3.66758e-014 -1.66979e-014
rhumerus -50.4507 9.26881 -87.432
rradius 36.9574
rwrist -5.60942
rhand -20.7649 -21.6952
rfingers 7.12502
rthumb 5.60139 -51.6012
lclavicle -3.66758e-014 -1.66979e-014
lhumerus -44.776 -13.1712 78.0844
lradius 38.181
lwrist -3.60225
lhand -25.1205 32.8634
lfingers 7.12502
lthumb 1.39518 62.8386
rfemur -12.8003 3.87804 36.9372
rtibia 6.93444
rfoot -23.9239 -17.3303
rtoes -3.32937
lfemur -17.6651 6.9016 -16.4376
ltibia 56.2247
lfoot -13.4946 18.8202
ltoes -63.3436
249
root 3.67673 15.7403 10.0211 205.672 -107.176 -195.21
lowerback 10.5316 3.03993 12.5617
upperback -9.86242 5.71911 -4.5309
thorax -15.6375 0.758156 -13.7365
lowerneck -16.8369 -11.8749 -11.5401
upperneck 38.2935 -20.9321 10.7749
head 20.6652 -9.04878 2.1464
rclavicle -5.62561e-014 -4.05521e-014
rhumerus -49.6565 9.29317 -87.2501
rradius 37.4212
rwrist -6.38701
rhand -21.2736 -21.4541
rfingers 7.12502
rthumb 5.1102 -51.3725
lclavicle -5.62561e-014 -4.05521e-014
lhumerus -45.4369 -12.8068 77.4889
lradius 38.4488
lwrist -2.54114
lhand -25.7127 33.4537
lfingers 7.12502
lthumb 0.823248 63.4319
rfemur -11.3177 4.75185 37.3825
rtibia 6.29942
rfoot -24.3522 -17.2192
rtoes -1.58347
lfemur -20.5597 7.01478 -16.3521
ltibia 56.4472
lfoot -15.403 18.4602
ltoes -64.0976
250
root 3.45556 15.7494 10.0733 206.53 -106.538 -196.254
lowerback 10.6272 3.1788 12.6111
upperback -9.81756 5.92941 -4.54854
thorax -15.5655 0.861319 -13.8297
lowerneck -16.7888 -11.7945 -11.5529
upperneck 38.3574 -20.8056 10.747
head 20.6655 -9.01106 2.17429
rclavicle 6.45056e-014 -8.74653e-015
rhumerus -48.8047 9.07725 -86.9028
rradius 37.8532
rwrist -6.65533
rhand -21.2093 -21.6741
rfingers 7.12502
rthumb 5.17231 -51.5909
lclavicle 6.45056e-014 -8.74653e-015
lhumerus -46.0034 -12.4035 77.024
lradius 38.6688
lwrist -1.51474
lhand -26.229 34.2068
lfingers 7.12502
lthumb 0.324573 64.1863
rfemur -9.79635 5.58867 37.6382
rtibia 5.69538
rfoot -24.8962 -17.0597
rtoes 0.0454806
lfemur -23.3813 6.90158 -16.5158
ltibia 56.2967
lfoot -17.8644 18.7544
ltoes -65.2063
